#!OML:ASF H:\MichaelJackson\Top Level 1\Subject 1\Session 1\male.ASF
:FULLY-SPECIFIED
:DEGREES
519
root 1.42629 16.2742 -1.54305 15.4082 7.14576 1.64829
lowerback 0.351264 -1.61247 -3.44554
upperback 0.339848 -2.15198 -1.79578
thorax 0.209445 -1.07959 0.0914522
lowerneck -6.08589 -0.687541 4.94621
upperneck -1.50271 -1.25319 1.89059
head 0.522481 -0.625156 -0.263258
rclavicle 2.18663e-014 -3.18055e-015
rhumerus -40.1228 0.00682885 -90.6896
rradius 59.6519
rwrist -3.29255
rhand -38.3002 -34.9245
rfingers 7.12502
rthumb -11.3288 295.401
lclavicle 2.18663e-014 -3.18055e-015
lhumerus -17.1428 -6.2794 77.2844
lradius 65.5942
lwrist 20.0339
lhand -31.1484 5.10363
lfingers 7.12502
lthumb -4.42648 35.0374
rfemur -43.7117 -1.37004 14.8258
rtibia 53.83
rfoot -21.2774 -2.26546
rtoes -9.48497
lfemur -19.3505 6.23017 -21.5315
ltibia 52.27
lfoot -28.8512 6.55528
ltoes -8.66867
520
root 1.40473 16.2987 -1.46107 15.3214 6.93249 1.14498
lowerback 0.533278 -1.43811 -3.07844
upperback 0.387671 -1.92608 -1.69097
thorax 0.141749 -0.965879 -0.00119933
lowerneck -6.06084 -0.718101 4.90483
upperneck -1.70878 -1.28314 1.9217
head 0.453977 -0.644853 -0.245928
rclavicle 9.93923e-015 1.59028e-015
rhumerus -40.1532 -0.103157 -90.7158
rradius 59.6096
rwrist -3.43028
rhand -38.2977 -35.8157
rfingers 7.12502
rthumb -11.3264 294.51
lclavicle 9.93923e-015 1.59028e-015
lhumerus -17.4949 -6.0947 77.2784
lradius 64.8789
lwrist 19.6951
lhand -32.0948 5.26142
lfingers 7.12502
lthumb -5.34031 35.1741
rfemur -42.9734 -1.26102 15.5714
rtibia 53.0407
rfoot -21.5216 -2.11423
rtoes -8.5706
lfemur -21.0296 7.27042 -21.0907
ltibia 55.5012
lfoot -26.3215 6.21848
ltoes -8.15761
521
root 1.38362 16.3236 -1.37972 15.1768 6.69846 0.605296
lowerback 0.765539 -1.24752 -2.69171
upperback 0.456264 -1.6783 -1.57587
thorax 0.0684824 -0.841329 -0.0949034
lowerneck -6.03261 -0.756861 4.85238
upperneck -1.91301 -1.32315 1.95944
head 0.385662 -0.669416 -0.224921
rclavicle -1.64991e-014 1.51076e-014
rhumerus -40.1954 0.0183656 -90.7774
rradius 59.5764
rwrist -3.58052
rhand -38.2337 -36.7693
rfingers 7.12502
rthumb -11.2646 293.553
lclavicle -1.64991e-014 1.51076e-014
lhumerus -17.8561 -6.04076 77.2856
lradius 64.1112
lwrist 19.33
lhand -32.8451 5.47976
lfingers 7.12502
lthumb -6.06471 35.373
rfemur -42.1987 -1.08534 16.3002
rtibia 52.2814
rfoot -21.6995 -1.83087
rtoes -7.52108
lfemur -22.847 8.45199 -20.645
ltibia 58.8849
lfoot -23.3356 5.81161
ltoes -6.41665
522
root 1.36334 16.3485 -1.29807 14.9716 6.45114 0.0240266
lowerback 1.03887 -1.04549 -2.28153
upperback 0.54329 -1.41398 -1.44586
thorax -0.00709969 -0.708591 -0.187821
lowerneck -5.99752 -0.798663 4.79979
upperneck -2.10028 -1.36729 1.98962
head 0.321606 -0.695721 -0.206357
rclavicle 1.0138e-014 8.74653e-015
rhumerus -40.256 0.373582 -90.8714
rradius 59.5616
rwrist -3.73565
rhand -38.1356 -37.6836
rfingers 7.12502
rthumb -11.17 292.634
lclavicle 1.0138e-014 8.74653e-015
lhumerus -18.2382 -6.10711 77.3133
lradius 63.3104
lwrist 18.9645
lhand -33.3677 5.7414
lfingers 7.12502
lthumb -6.56917 35.6195
rfemur -41.374 -0.87231 17.0391
rtibia 51.5375
rfoot -21.8258 -1.45637
rtoes -6.43265
lfemur -24.7581 9.75807 -20.1955
ltibia 62.3249
lfoot -19.9922 5.41464
ltoes -2.84961
